<svg xmlns="http://www.w3.org/2000/svg" width="176.502" height="247.103" viewBox="0 0 176.502 247.103">
  <path id="Icon_awesome-rupee-sign" data-name="Icon awesome-rupee-sign" d="M169.883,37.55a6.619,6.619,0,0,0,6.619-6.619V8.869a6.619,6.619,0,0,0-6.619-6.619H6.619A6.619,6.619,0,0,0,0,8.869V33.55a6.619,6.619,0,0,0,6.619,6.619H53.657c15.062,0,26.619,5.493,33.629,15.031H6.619A6.619,6.619,0,0,0,0,61.819V83.882A6.619,6.619,0,0,0,6.619,90.5H94.184c-3.429,19.9-18.18,32.34-41.234,32.34H6.619A6.619,6.619,0,0,0,0,129.459V158.7a6.62,6.62,0,0,0,2.13,4.864L93.167,247.6a6.619,6.619,0,0,0,4.489,1.755h45.539a6.619,6.619,0,0,0,4.489-11.483L64.462,161.05C106.657,159.759,136.8,131.6,140.754,90.5h29.129a6.619,6.619,0,0,0,6.619-6.619V61.819a6.619,6.619,0,0,0-6.619-6.619H137.512a75.552,75.552,0,0,0-7.861-17.65Z" transform="translate(0 -2.25)"/>
</svg>
